<?xml version="1.0" encoding="utf-8"?>
<!-- Generator: Adobe Illustrator 16.0.1, SVG Export Plug-In . SVG Version: 6.00 Build 0)  -->
<!DOCTYPE svg PUBLIC "-//W3C//DTD SVG 1.1//EN" "http://www.w3.org/Graphics/SVG/1.1/DTD/svg11.dtd">
<svg version="1.1" id="Layer_1" xmlns="http://www.w3.org/2000/svg" xmlns:xlink="http://www.w3.org/1999/xlink" x="0px" y="0px"
	 width="160px" height="60px" viewBox="0 0 160 60" enable-background="new 0 0 160 60" xml:space="preserve">
<g>
	<path fill="#39CEF7" d="M87.148,17.388c-0.113-0.643-0.136-0.818-0.205-1.439c-0.829,1.15-1.844,1.66-3.229,1.66
		c-2.465,0-3.596-1.684-3.596-5.356c0-1.618,0.184-2.768,0.575-3.718c0.574-1.307,1.823-2.104,3.366-2.104
		c1.222,0,1.984,0.399,2.79,1.417v-4.98h1.43V14.62c0,0.976,0.069,1.772,0.231,2.768H87.148z M86.852,10.083
		c0-1.417-1.085-2.501-2.491-2.501c-1.937,0-2.722,1.35-2.722,4.76c0,2.878,0.762,4.207,2.422,4.207
		c1.706,0,2.791-1.396,2.791-3.543V10.083L86.852,10.083z"/>
	<path fill="#39CEF7" d="M91.326,4.283V2.868h1.453v1.416H91.326z M91.326,17.388V6.829h1.453v10.559H91.326z"/>
	<path fill="#39CEF7" d="M99.629,20.995c-2.929,0-4.266-0.774-4.266-2.434c0-0.975,0.439-1.528,1.729-2.191
		c-0.762-0.31-1.06-0.731-1.06-1.483c0-0.842,0.368-1.328,1.451-1.861c-1.451-0.664-2.074-1.615-2.074-3.143
		c0-2.103,1.521-3.41,3.942-3.41c0.322,0,0.462,0,0.784,0.067c0.276-1.527,1.15-2.368,2.445-2.368c0.23,0,0.345,0.022,0.669,0.132
		v1.042c-0.21-0.046-0.303-0.066-0.42-0.066c-0.806,0-1.359,0.485-1.683,1.481c1.476,0.466,2.375,1.704,2.375,3.255
		c0,2.081-1.589,3.453-4.011,3.453c-0.393,0-0.554-0.021-1.017-0.065c-0.666,0.199-1.013,0.575-1.013,1.061
		c0,0.554,0.368,0.777,1.27,0.798h0.807c2.029,0.02,2.281,0.065,3.021,0.42c0.853,0.442,1.407,1.351,1.407,2.369
		C103.987,19.933,102.419,20.995,99.629,20.995z M99.791,16.656h-0.185l-0.599,0.021c-0.07,0-0.254-0.021-0.578-0.021
		c-0.069,0-0.184,0-0.345,0c-0.831,0.42-1.292,1.019-1.292,1.683c0,0.973,1.154,1.614,2.882,1.614c1.776,0,2.79-0.619,2.79-1.704
		C102.465,17.056,101.771,16.656,99.791,16.656z M99.47,7.47c-1.617,0-2.606,0.952-2.606,2.481c0,1.46,1.06,2.457,2.606,2.457
		c1.563,0,2.534-0.885,2.534-2.369C102.004,8.401,101.082,7.47,99.47,7.47z"/>
	<path fill="#39CEF7" d="M106.181,4.283V2.868h1.45v1.416H106.181z M106.181,17.388V6.829h1.45v10.559H106.181z"/>
	<path fill="#39CEF7" d="M112.177,7.957v7.46v0.331c0,0.533,0.418,0.842,1.199,0.842c0.439,0,0.853-0.112,1.545-0.399v1.041
		c-0.76,0.309-1.291,0.417-1.981,0.417c-1.34,0-2.17-0.618-2.17-1.659V7.956h-1.98V6.827h1.98V3.573h1.407v3.254h2.768v1.129
		L112.177,7.957L112.177,7.957z"/>
	<path fill="#39CEF7" d="M122.947,17.388c-0.139-0.554-0.161-0.708-0.207-1.284c-0.783,1.018-1.937,1.548-3.344,1.548
		c-1.937,0-3.138-1.173-3.138-3.097c0-1.838,1.039-3.012,3.021-3.433c0.97-0.175,2.075-0.31,3.322-0.376V9.707
		c0-1.396-0.787-2.17-2.215-2.17c-1.359,0-2.145,0.664-2.145,1.837c0,0.067,0,0.179,0,0.333h-1.338
		c-0.021-0.2-0.021-0.354-0.021-0.466c0-1.681,1.338-2.744,3.435-2.744c2.467,0,3.759,1.041,3.759,3.033v4.583
		c0,1.349,0.091,2.458,0.277,3.276H122.947L122.947,17.388z M122.647,11.722c-1.661,0.176-2.674,0.354-3.411,0.641
		c-0.945,0.333-1.432,1.063-1.432,2.169c0,1.218,0.738,1.992,1.915,1.992c1.75,0,2.927-1.196,2.927-3.01L122.647,11.722
		L122.647,11.722z"/>
	<path fill="#39CEF7" d="M127.148,17.388V2.868h1.474v14.52H127.148z"/>
</g>
<g>
	<path fill="#39CEF7" d="M84.891,38.072c-1.384,0-2.397-0.512-3.228-1.639c-0.07,0.619-0.095,0.775-0.209,1.418h-1.336
		c0.14-1.108,0.207-1.859,0.207-2.748V23.33h1.43v4.98c0.808-1.02,1.567-1.396,2.788-1.396c1.548,0,2.813,0.777,3.37,2.104
		c0.388,0.951,0.573,2.08,0.573,3.696C88.488,36.389,87.356,38.072,84.891,38.072z M84.221,28.044c-1.383,0-2.466,1.106-2.466,2.523
		v2.923c0,2.147,1.083,3.521,2.788,3.521c1.661,0,2.424-1.307,2.424-4.186C86.967,29.394,86.182,28.044,84.221,28.044z"/>
	<path fill="#39CEF7" d="M97.092,37.852c-0.137-0.555-0.163-0.711-0.207-1.286c-0.785,1.017-1.937,1.549-3.344,1.549
		c-1.937,0-3.137-1.171-3.137-3.098c0-1.838,1.04-3.01,3.021-3.434c0.97-0.175,2.074-0.31,3.322-0.374v-1.04
		c0-1.396-0.785-2.169-2.216-2.169c-1.359,0-2.144,0.665-2.144,1.837c0,0.066,0,0.178,0,0.332H91.05
		c-0.023-0.201-0.023-0.355-0.023-0.466c0-1.682,1.336-2.745,3.436-2.745c2.466,0,3.759,1.041,3.759,3.034v4.582
		c0,1.349,0.094,2.456,0.275,3.276L97.092,37.852L97.092,37.852z M96.792,32.184c-1.659,0.179-2.674,0.352-3.412,0.642
		c-0.945,0.333-1.432,1.062-1.432,2.17c0,1.217,0.737,1.992,1.914,1.992c1.752,0,2.927-1.195,2.927-3.012L96.792,32.184
		L96.792,32.184z"/>
	<path fill="#39CEF7" d="M104.658,38.16c-2.629,0-4.01-1.792-4.01-5.246c0-2.171,0.412-3.654,1.334-4.784
		c0.716-0.863,1.545-1.194,2.885-1.194c1.384,0,2.215,0.465,2.766,1.571c0.277,0.531,0.418,1.019,0.418,1.638
		c0,0.178-0.023,0.31-0.048,0.598h-1.385c0-0.244,0.021-0.354,0.021-0.487c0-1.526-0.667-2.344-1.89-2.344
		c-1.568,0-2.582,1.858-2.582,4.737c0,2.989,0.828,4.516,2.466,4.516c1.451,0,2.188-0.975,2.188-2.88c0-0.108,0-0.221-0.021-0.418
		h1.337c0.022,0.31,0.046,0.442,0.046,0.664C108.187,36.764,106.824,38.16,104.658,38.16z"/>
	<path fill="#39CEF7" d="M117.227,37.852l-3.48-5.868l-1.894,2.035v3.831h-1.45V23.328h1.45v8.94l4.431-4.979h1.773l-3.3,3.63
		l4.149,6.931L117.227,37.852L117.227,37.852z"/>
	<path fill="#39CEF7" d="M124.539,38.072c-1.38,0-2.397-0.512-3.228-1.639c-0.068,0.619-0.092,0.775-0.207,1.418h-1.338
		c0.139-1.108,0.207-1.859,0.207-2.748V23.33h1.431v4.98c0.807-1.02,1.567-1.396,2.788-1.396c1.547,0,2.815,0.777,3.368,2.104
		c0.39,0.951,0.576,2.08,0.576,3.696C128.139,36.389,127.008,38.072,124.539,38.072z M123.87,28.044
		c-1.383,0-2.466,1.106-2.466,2.523v2.923c0,2.147,1.083,3.521,2.788,3.521c1.66,0,2.423-1.307,2.423-4.186
		C126.615,29.394,125.83,28.044,123.87,28.044z"/>
	<path fill="#39CEF7" d="M134.249,38.182c-2.675,0-4.104-1.86-4.104-5.401c0-3.808,1.476-5.844,4.197-5.844
		c2.697,0,4.036,1.836,4.036,5.579C138.378,36.233,136.946,38.182,134.249,38.182z M134.341,28c-1.705,0-2.696,1.592-2.696,4.403
		c0,1.063,0.162,2.215,0.438,3.057c0.346,1.128,1.036,1.681,2.144,1.681c1.775,0,2.605-1.481,2.605-4.759
		C136.832,29.461,136.002,28,134.341,28z"/>
	<path fill="#39CEF7" d="M147.004,37.852v-7.284c0-1.483-0.623-2.191-1.891-2.191c-1.659,0-2.975,1.594-2.975,3.607v5.868h-1.406
		V30.79c0-1.35-0.069-2.899-0.161-3.497h1.381c0.117,0.709,0.117,0.93,0.142,2.015c0.645-1.46,1.775-2.214,3.364-2.214
		c1.868,0,2.998,1.195,2.998,3.187v7.572H147.004L147.004,37.852z"/>
	<path fill="#39CEF7" d="M158.585,32.494h-6.136c-0.022,0.308-0.022,0.441-0.022,0.642c0,2.523,0.921,3.959,2.584,3.959
		c1.339,0,2.19-0.927,2.28-2.498h1.34c-0.094,2.258-1.409,3.495-3.736,3.495c-2.605,0-4.012-1.771-4.012-5.088
		c0-3.788,1.615-6.089,4.244-6.089c2.235,0,3.524,1.661,3.524,4.538C158.65,31.83,158.65,32.007,158.585,32.494z M157.13,31.055
		c0-1.857-0.853-3.122-2.121-3.122c-1.338,0-2.261,1.329-2.469,3.608h4.59C157.13,31.32,157.13,31.167,157.13,31.055z"/>
</g>
<g>
	<path fill="#FFFFFF" d="M83.506,47.244v7.462v0.331c0,0.532,0.415,0.841,1.197,0.841c0.439,0,0.854-0.11,1.547-0.396v1.04
		c-0.763,0.31-1.291,0.417-1.983,0.417c-1.339,0-2.168-0.617-2.168-1.659v-8.036h-1.982v-1.128h1.982v-3.252h1.407v3.252h2.768
		v1.128L83.506,47.244L83.506,47.244z"/>
	<path fill="#FFFFFF" d="M95.407,51.319h-6.135c-0.021,0.31-0.021,0.442-0.021,0.64c0,2.525,0.921,3.962,2.582,3.962
		c1.337,0,2.19-0.929,2.282-2.5h1.337c-0.092,2.258-1.405,3.495-3.732,3.495c-2.607,0-4.013-1.769-4.013-5.09
		c0-3.786,1.613-6.088,4.241-6.088c2.237,0,3.529,1.661,3.529,4.538C95.476,50.655,95.476,50.831,95.407,51.319z M93.955,49.88
		c0-1.858-0.854-3.122-2.124-3.122c-1.338,0-2.261,1.329-2.465,3.609h4.589C93.955,50.146,93.955,49.991,93.955,49.88z"/>
	<path fill="#FFFFFF" d="M98.037,56.677V42.155h1.477v14.521H98.037z"/>
	<path fill="#FFFFFF" d="M109.846,51.319h-6.134c-0.023,0.31-0.023,0.442-0.023,0.64c0,2.525,0.922,3.962,2.583,3.962
		c1.339,0,2.189-0.929,2.282-2.5h1.339c-0.094,2.258-1.407,3.495-3.735,3.495c-2.606,0-4.011-1.769-4.011-5.09
		c0-3.786,1.614-6.088,4.242-6.088c2.234,0,3.525,1.661,3.525,4.538C109.913,50.655,109.913,50.831,109.846,51.319z M108.392,49.88
		c0-1.858-0.852-3.122-2.121-3.122c-1.338,0-2.26,1.329-2.468,3.609h4.589C108.392,50.146,108.392,49.991,108.392,49.88z"/>
	<path fill="#FFFFFF" d="M115.704,56.786h-1.292l-3.389-10.67h1.498l2.605,8.476l2.377-8.476h1.452L115.704,56.786z"/>
	<path fill="#FFFFFF" d="M120.828,43.573v-1.418h1.451v1.418H120.828z M120.828,56.677V46.116h1.451v10.561H120.828z"/>
	<path fill="#FFFFFF" d="M128.299,57.008c-2.191,0-3.414-1.13-3.414-3.144c0-0.267,0.023-0.375,0.048-0.729h1.405
		c-0.024,0.288-0.046,0.376-0.046,0.573c0,1.463,0.784,2.28,2.167,2.28c1.314,0,2.214-0.794,2.214-1.992
		c0-0.863-0.437-1.418-1.521-1.859l-1.962-0.819c-1.383-0.577-2.073-1.528-2.073-2.812c0-1.682,1.268-2.746,3.32-2.746
		c2.007,0,3.206,1.042,3.206,2.77c0,0.289,0,0.396-0.07,0.842l-1.384-0.021c0.048-0.334,0.048-0.468,0.048-0.643
		c0-1.241-0.624-1.881-1.846-1.881c-1.175,0-1.87,0.597-1.87,1.614c0,0.71,0.371,1.194,1.154,1.528l2.03,0.84
		c1.773,0.731,2.444,1.552,2.444,2.968C132.15,55.744,130.65,57.008,128.299,57.008z"/>
	<path fill="#FFFFFF" d="M134.804,43.573v-1.418h1.452v1.418H134.804z M134.804,56.677V46.116h1.452v10.561H134.804z"/>
	<path fill="#FFFFFF" d="M142.967,57.008c-2.675,0-4.104-1.859-4.104-5.401c0-3.807,1.476-5.845,4.199-5.845
		c2.697,0,4.033,1.838,4.033,5.58C147.095,55.06,145.666,57.008,142.967,57.008z M143.062,46.826c-1.708,0-2.7,1.592-2.7,4.403
		c0,1.062,0.161,2.214,0.438,3.054c0.347,1.13,1.04,1.683,2.146,1.683c1.777,0,2.605-1.481,2.605-4.757
		C145.551,48.287,144.721,46.826,143.062,46.826z"/>
	<path fill="#FFFFFF" d="M155.723,56.677v-7.284c0-1.482-0.622-2.192-1.893-2.192c-1.659,0-2.974,1.595-2.974,3.609v5.867h-1.408
		v-7.062c0-1.35-0.068-2.898-0.159-3.498h1.382c0.115,0.711,0.115,0.931,0.14,2.016c0.645-1.461,1.776-2.216,3.364-2.216
		c1.868,0,2.998,1.196,2.998,3.188v7.572H155.723L155.723,56.677z"/>
</g>
<g>
	
		<linearGradient id="SVGID_1_" gradientUnits="userSpaceOnUse" x1="17.1079" y1="71.7305" x2="37.908" y2="14.5826" gradientTransform="matrix(1 0 0 1 8 -11)">
		<stop  offset="0" style="stop-color:#FF6700"/>
		<stop  offset="0.8378" style="stop-color:#FF6D00"/>
		<stop  offset="1" style="stop-color:#FF9500"/>
	</linearGradient>
	<path fill="url(#SVGID_1_)" d="M57.626,23.855H47.217V8.243h10.409C65.989,8.243,66.547,23.855,57.626,23.855z M57.626,33.52
		H47.217v15.613h10.409C66.547,49.133,65.989,33.52,57.626,33.52z M35.681,52.43c0,3.474-0.831,4.137-5.254,4.051
		c-0.666,0.046-4.893,0.03-4.893,0.03s-0.568-0.004-1.362-0.01c0,0,0-2.531,0-3.083c-6.778,6.779-23.326,2.403-23.171-13.419
		c0.127-13.17,14.806-18.933,23.171-12.613c0-9.174,0-18.637,0-19.624c0-2.479-3.718-2.726-3.718-2.726V2.196
		c0,0,8.04-0.017,10.829-0.017c2.788,0,4.34,0.009,4.34,3.507C35.622,8.415,35.681,48.959,35.681,52.43z M24.172,34.201
		c0,0-0.744-3.16-5.228-3.16c-3.562,0-7.073,3.842-7.073,9.852c0,5.638,3.467,9.107,7.029,9.107c5.024,0,5.272-2.464,5.272-2.464
		V34.201L24.172,34.201z"/>
	<g>
		
			<linearGradient id="SVGID_2_" gradientUnits="userSpaceOnUse" x1="4.606" y1="67.1816" x2="25.4065" y2="10.0328" gradientTransform="matrix(1 0 0 1 8 -11)">
			<stop  offset="0.3977" style="stop-color:#FF6A00"/>
			<stop  offset="0.9058" style="stop-color:#FF9500"/>
		</linearGradient>
		<path fill="url(#SVGID_2_)" d="M35.631,12.793c0-0.362,0-0.711-0.001-1.052l-9.556-9.556c-0.353,0-0.705,0.001-1.05,0.001
			L35.631,12.793z"/>
		
			<linearGradient id="SVGID_3_" gradientUnits="userSpaceOnUse" x1="24.9346" y1="74.5576" x2="45.7233" y2="17.441" gradientTransform="matrix(1 0 0 1 8 -11)">
			<stop  offset="0.3977" style="stop-color:#FF6A00"/>
			<stop  offset="0.9058" style="stop-color:#FF9500"/>
		</linearGradient>
		<polygon fill="url(#SVGID_3_)" points="47.217,23.33 47.217,23.855 47.743,23.855 		"/>
		
			<linearGradient id="SVGID_4_" gradientUnits="userSpaceOnUse" x1="5.2314" y1="67.3965" x2="26.0275" y2="10.26" gradientTransform="matrix(1 0 0 1 8 -11)">
			<stop  offset="0.3977" style="stop-color:#FF6A00"/>
			<stop  offset="0.9058" style="stop-color:#FF9500"/>
		</linearGradient>
		<path fill="url(#SVGID_4_)" d="M35.628,10.561c0-0.367-0.001-0.719-0.001-1.053l-7.327-7.326c-0.342,0-0.693,0-1.05,0.001
			L35.628,10.561z"/>
		
			<linearGradient id="SVGID_5_" gradientUnits="userSpaceOnUse" x1="25.5566" y1="74.7969" x2="46.3533" y2="17.6587" gradientTransform="matrix(1 0 0 1 8 -11)">
			<stop  offset="0.3977" style="stop-color:#FF6A00"/>
			<stop  offset="0.9058" style="stop-color:#FF9500"/>
		</linearGradient>
		<polygon fill="url(#SVGID_5_)" points="47.217,21.099 47.217,22.151 48.922,23.855 49.974,23.855 		"/>
		
			<linearGradient id="SVGID_6_" gradientUnits="userSpaceOnUse" x1="5.8511" y1="67.6309" x2="26.65" y2="10.4866" gradientTransform="matrix(1 0 0 1 8 -11)">
			<stop  offset="0.3977" style="stop-color:#FF6A00"/>
			<stop  offset="0.9058" style="stop-color:#FF9500"/>
		</linearGradient>
		<path fill="url(#SVGID_6_)" d="M35.625,8.327c0-0.388,0-0.737,0-1.052l-5.096-5.096c-0.319,0-0.671,0.001-1.051,0.001
			L35.625,8.327z"/>
		
			<linearGradient id="SVGID_7_" gradientUnits="userSpaceOnUse" x1="7.0854" y1="68.0625" x2="27.8786" y2="10.9335" gradientTransform="matrix(1 0 0 1 8 -11)">
			<stop  offset="0.3977" style="stop-color:#FF6A00"/>
			<stop  offset="0.9058" style="stop-color:#FF9500"/>
		</linearGradient>
		<path fill="url(#SVGID_7_)" d="M34.261,2.503l1.001,1.002C35.034,3.01,34.7,2.697,34.261,2.503z"/>
		
			<linearGradient id="SVGID_8_" gradientUnits="userSpaceOnUse" x1="-3.9033" y1="64.0488" x2="16.8837" y2="6.937" gradientTransform="matrix(1 0 0 1 8 -11)">
			<stop  offset="0.3977" style="stop-color:#FF6A00"/>
			<stop  offset="0.9058" style="stop-color:#FF9500"/>
		</linearGradient>
		<path fill="url(#SVGID_8_)" d="M21.317,5.171c0.515,0.112,1.17,0.317,1.726,0.674l-2.59-2.589v1.052L21.317,5.171z"/>
		
			<linearGradient id="SVGID_9_" gradientUnits="userSpaceOnUse" x1="5.687" y1="69.3574" x2="27.0826" y2="10.5736" gradientTransform="matrix(1 0 0 1 8 -11)">
			<stop  offset="0.3977" style="stop-color:#FF6A00"/>
			<stop  offset="0.9058" style="stop-color:#FF9500"/>
		</linearGradient>
		<path fill="url(#SVGID_9_)" d="M35.323,6.095c0-0.177,0-0.318,0-0.41c0-0.239,0.141-0.458,0.126-0.666l-2.737-2.812
			c-0.333-0.02-0.806-0.027-1.193-0.029L35.323,6.095z"/>
		
			<linearGradient id="SVGID_10_" gradientUnits="userSpaceOnUse" x1="6.8013" y1="67.9707" x2="27.5974" y2="10.8337" gradientTransform="matrix(1 0 0 1 8 -11)">
			<stop  offset="0.3977" style="stop-color:#FF6A00"/>
			<stop  offset="0.9058" style="stop-color:#FF9500"/>
		</linearGradient>
		<path fill="url(#SVGID_10_)" d="M35.642,21.727c0-0.353,0-0.704-0.001-1.053L24.172,9.204c0,0.309,0,0.663,0,1.051L35.642,21.727z
			"/>
		
			<linearGradient id="SVGID_11_" gradientUnits="userSpaceOnUse" x1="7.5171" y1="68.2383" x2="28.3167" y2="11.0914" gradientTransform="matrix(1 0 0 1 8 -11)">
			<stop  offset="0.3977" style="stop-color:#FF6A00"/>
			<stop  offset="0.9058" style="stop-color:#FF9500"/>
		</linearGradient>
		<path fill="url(#SVGID_11_)" d="M35.645,23.959c0-0.352,0-0.703-0.001-1.052L24.172,11.435c0,0.333,0,0.685,0,1.052L35.645,23.959
			z"/>
		
			<linearGradient id="SVGID_12_" gradientUnits="userSpaceOnUse" x1="3.9839" y1="66.9541" x2="24.7844" y2="9.805" gradientTransform="matrix(1 0 0 1 8 -11)">
			<stop  offset="0.3977" style="stop-color:#FF6A00"/>
			<stop  offset="0.9058" style="stop-color:#FF9500"/>
		</linearGradient>
		<path fill="url(#SVGID_12_)" d="M35.633,15.027c0-0.357,0-0.708-0.001-1.053L23.848,2.189c-0.369,0-0.721,0.001-1.05,0.001
			L35.633,15.027z"/>
		
			<linearGradient id="SVGID_13_" gradientUnits="userSpaceOnUse" x1="8.2363" y1="68.4941" x2="29.033" y2="11.356" gradientTransform="matrix(1 0 0 1 8 -11)">
			<stop  offset="0.3977" style="stop-color:#FF6A00"/>
			<stop  offset="0.9058" style="stop-color:#FF9500"/>
		</linearGradient>
		<path fill="url(#SVGID_13_)" d="M35.648,26.193c0-0.352,0-0.703,0-1.052L24.172,13.666c0,0.339,0,0.69,0,1.051L35.648,26.193z"/>
		
			<linearGradient id="SVGID_14_" gradientUnits="userSpaceOnUse" x1="5.8994" y1="67.6504" x2="26.6991" y2="10.5038" gradientTransform="matrix(1 0 0 1 8 -11)">
			<stop  offset="0.3977" style="stop-color:#FF6A00"/>
			<stop  offset="0.9058" style="stop-color:#FF9500"/>
		</linearGradient>
		<path fill="url(#SVGID_14_)" d="M24.172,8.025l11.467,11.468c0-0.354,0-0.706-0.001-1.052L23.874,6.676
			c0.182,0.305,0.298,0.662,0.298,1.087C24.172,7.822,24.172,7.911,24.172,8.025z"/>
		
			<linearGradient id="SVGID_15_" gradientUnits="userSpaceOnUse" x1="3.3618" y1="66.7266" x2="24.1616" y2="9.5796" gradientTransform="matrix(1 0 0 1 8 -11)">
			<stop  offset="0.3977" style="stop-color:#FF6A00"/>
			<stop  offset="0.9058" style="stop-color:#FF9500"/>
		</linearGradient>
		<path fill="url(#SVGID_15_)" d="M35.636,17.26c0-0.355,0-0.707,0-1.052L21.621,2.193c-0.502,0.001-0.872,0.001-1.048,0.002
			L35.636,17.26z"/>
		
			<linearGradient id="SVGID_16_" gradientUnits="userSpaceOnUse" x1="-3.0044" y1="64.415" x2="17.7977" y2="7.2616" gradientTransform="matrix(1 0 0 1 8 -11)">
			<stop  offset="0.3977" style="stop-color:#FF6A00"/>
			<stop  offset="0.9058" style="stop-color:#FF9500"/>
		</linearGradient>
		<path fill="url(#SVGID_16_)" d="M16.553,31.633c0.245-0.121,0.494-0.224,0.745-0.308l-5.755-5.755
			c-0.261,0.083-0.52,0.176-0.777,0.274L16.553,31.633z"/>
		
			<linearGradient id="SVGID_17_" gradientUnits="userSpaceOnUse" x1="-1.5259" y1="64.9619" x2="19.2838" y2="7.7876" gradientTransform="matrix(1 0 0 1 8 -11)">
			<stop  offset="0.3977" style="stop-color:#FF6A00"/>
			<stop  offset="0.9058" style="stop-color:#FF9500"/>
		</linearGradient>
		<path fill="url(#SVGID_17_)" d="M18.244,31.093c0.232-0.032,0.466-0.052,0.7-0.052c0.111,0,0.209,0.01,0.315,0.014l-5.947-5.947
			c-0.287,0.057-0.573,0.124-0.855,0.197L18.244,31.093z"/>
		
			<linearGradient id="SVGID_18_" gradientUnits="userSpaceOnUse" x1="16.7207" y1="71.748" x2="37.6872" y2="14.1434" gradientTransform="matrix(1 0 0 1 8 -11)">
			<stop  offset="0.3977" style="stop-color:#FF6A00"/>
			<stop  offset="0.9058" style="stop-color:#FF9500"/>
		</linearGradient>
		<path fill="url(#SVGID_18_)" d="M24.172,41.479l11.321,11.502c0.005-0.175-0.17-0.356-0.17-0.552c0-0.117,0-0.286,0-0.488
			L24.172,40.431V41.479z"/>
		
			<linearGradient id="SVGID_19_" gradientUnits="userSpaceOnUse" x1="0.7227" y1="65.7891" x2="21.5372" y2="8.6015" gradientTransform="matrix(1 0 0 1 8 -11)">
			<stop  offset="0.3977" style="stop-color:#FF6A00"/>
			<stop  offset="0.9058" style="stop-color:#FF9500"/>
		</linearGradient>
		<path fill="url(#SVGID_19_)" d="M20.593,31.211c0.7,0.152,1.266,0.391,1.724,0.673l-7.031-7.032
			c-0.32,0.021-0.64,0.052-0.959,0.093L20.593,31.211z"/>
		
			<linearGradient id="SVGID_20_" gradientUnits="userSpaceOnUse" x1="32.2861" y1="77.248" x2="53.0843" y2="20.1055" gradientTransform="matrix(1 0 0 1 8 -11)">
			<stop  offset="0.3977" style="stop-color:#FF6A00"/>
			<stop  offset="0.9058" style="stop-color:#FF9500"/>
		</linearGradient>
		<path fill="url(#SVGID_20_)" d="M55.613,8.243l8.483,8.483c0.018-0.353,0.011-0.707-0.009-1.06l-7.423-7.423H55.613z"/>
		
			<linearGradient id="SVGID_21_" gradientUnits="userSpaceOnUse" x1="36.7754" y1="78.8906" x2="57.577" y2="21.7389" gradientTransform="matrix(1 0 0 1 8 -11)">
			<stop  offset="0.3977" style="stop-color:#FF6A00"/>
			<stop  offset="0.9058" style="stop-color:#FF9500"/>
		</linearGradient>
		<path fill="url(#SVGID_21_)" d="M48.487,33.52h-1.052l14.193,14.192c0.187-0.16,0.364-0.336,0.53-0.521L48.487,33.52z"/>
		
			<linearGradient id="SVGID_22_" gradientUnits="userSpaceOnUse" x1="10.2676" y1="69.2461" x2="31.0712" y2="12.0885" gradientTransform="matrix(1 0 0 1 8 -11)">
			<stop  offset="0.3977" style="stop-color:#FF6A00"/>
			<stop  offset="0.9058" style="stop-color:#FF9500"/>
		</linearGradient>
		<path fill="url(#SVGID_22_)" d="M20.328,25.434c-0.465-0.145-0.935-0.27-1.413-0.362l16.754,16.755
			c0-0.348-0.001-0.696-0.001-1.053L20.328,25.434z"/>
		
			<linearGradient id="SVGID_23_" gradientUnits="userSpaceOnUse" x1="9.4951" y1="68.9619" x2="30.2962" y2="11.8114" gradientTransform="matrix(1 0 0 1 8 -11)">
			<stop  offset="0.3977" style="stop-color:#FF6A00"/>
			<stop  offset="0.9058" style="stop-color:#FF9500"/>
		</linearGradient>
		<path fill="url(#SVGID_23_)" d="M17.548,24.885c-0.369-0.034-0.739-0.054-1.111-0.058l19.236,19.234
			c0-0.344-0.002-0.696-0.002-1.054L17.548,24.885z"/>
		
			<linearGradient id="SVGID_24_" gradientUnits="userSpaceOnUse" x1="11.5908" y1="69.7227" x2="32.3903" y2="12.5765" gradientTransform="matrix(1 0 0 1 8 -11)">
			<stop  offset="0.3977" style="stop-color:#FF6A00"/>
			<stop  offset="0.9058" style="stop-color:#FF9500"/>
		</linearGradient>
		<path fill="url(#SVGID_24_)" d="M24.172,27.047c0,0.114,0,0.227,0,0.34c-0.593-0.447-1.221-0.828-1.868-1.156l13.362,13.362
			c0-0.346-0.001-0.696-0.001-1.052L24.172,27.047z"/>
		
			<linearGradient id="SVGID_25_" gradientUnits="userSpaceOnUse" x1="14.48" y1="70.7725" x2="35.278" y2="13.6304" gradientTransform="matrix(1 0 0 1 8 -11)">
			<stop  offset="0.3977" style="stop-color:#FF6A00"/>
			<stop  offset="0.9058" style="stop-color:#FF9500"/>
		</linearGradient>
		<path fill="url(#SVGID_25_)" d="M23.8,33.367c0.282,0.475,0.372,0.834,0.372,0.834v0.588l11.504,11.504
			c0-0.34-0.001-0.693-0.001-1.052L23.8,33.367z"/>
		
			<linearGradient id="SVGID_26_" gradientUnits="userSpaceOnUse" x1="16.1406" y1="71.375" x2="36.9377" y2="14.2357" gradientTransform="matrix(1 0 0 1 8 -11)">
			<stop  offset="0.3977" style="stop-color:#FF6A00"/>
			<stop  offset="0.9058" style="stop-color:#FF9500"/>
		</linearGradient>
		<path fill="url(#SVGID_26_)" d="M24.172,38.198v1.051L35.68,50.758c0-0.317,0-0.667,0-1.051L24.172,38.198z"/>
		
			<linearGradient id="SVGID_27_" gradientUnits="userSpaceOnUse" x1="-4.1191" y1="64.0166" x2="16.69" y2="6.844" gradientTransform="matrix(1 0 0 1 8 -11)">
			<stop  offset="0.3977" style="stop-color:#FF6A00"/>
			<stop  offset="0.9058" style="stop-color:#FF9500"/>
		</linearGradient>
		<path fill="url(#SVGID_27_)" d="M15.21,32.52c0.194-0.165,0.394-0.317,0.597-0.455L9.933,26.19
			c-0.24,0.108-0.477,0.221-0.711,0.34L15.21,32.52z"/>
		
			<linearGradient id="SVGID_28_" gradientUnits="userSpaceOnUse" x1="15.4209" y1="71.1191" x2="36.2233" y2="13.9648" gradientTransform="matrix(1 0 0 1 8 -11)">
			<stop  offset="0.3977" style="stop-color:#FF6A00"/>
			<stop  offset="0.9058" style="stop-color:#FF9500"/>
		</linearGradient>
		<path fill="url(#SVGID_28_)" d="M24.172,35.968v1.051l11.507,11.508c0-0.333-0.001-0.687-0.001-1.054L24.172,35.968z"/>
		
			<linearGradient id="SVGID_29_" gradientUnits="userSpaceOnUse" x1="40.6182" y1="80.3008" x2="61.4256" y2="23.133" gradientTransform="matrix(1 0 0 1 8 -11)">
			<stop  offset="0.3977" style="stop-color:#FF6A00"/>
			<stop  offset="0.9058" style="stop-color:#FF9500"/>
		</linearGradient>
		<path fill="url(#SVGID_29_)" d="M57.408,33.52h-1.051l7.748,7.749c-0.008-0.385-0.042-0.766-0.093-1.145L57.408,33.52z"/>
		
			<linearGradient id="SVGID_30_" gradientUnits="userSpaceOnUse" x1="26.8081" y1="75.2559" x2="47.6056" y2="18.115" gradientTransform="matrix(1 0 0 1 8 -11)">
			<stop  offset="0.3977" style="stop-color:#FF6A00"/>
			<stop  offset="0.9058" style="stop-color:#FF9500"/>
		</linearGradient>
		<polygon fill="url(#SVGID_30_)" points="47.217,16.639 47.217,17.69 53.383,23.855 54.435,23.855 		"/>
		
			<linearGradient id="SVGID_31_" gradientUnits="userSpaceOnUse" x1="26.1792" y1="75.04" x2="46.9828" y2="17.8825" gradientTransform="matrix(1 0 0 1 8 -11)">
			<stop  offset="0.3977" style="stop-color:#FF6A00"/>
			<stop  offset="0.9058" style="stop-color:#FF9500"/>
		</linearGradient>
		<polygon fill="url(#SVGID_31_)" points="47.217,18.869 47.217,19.92 51.153,23.855 52.204,23.855 		"/>
		
			<linearGradient id="SVGID_32_" gradientUnits="userSpaceOnUse" x1="38.9722" y1="79.7002" x2="59.7791" y2="22.5336" gradientTransform="matrix(1 0 0 1 8 -11)">
			<stop  offset="0.3977" style="stop-color:#FF6A00"/>
			<stop  offset="0.9058" style="stop-color:#FF9500"/>
		</linearGradient>
		<path fill="url(#SVGID_32_)" d="M52.948,33.52h-1.051l11.551,11.553c0.102-0.256,0.194-0.514,0.271-0.781L52.948,33.52z"/>
		
			<linearGradient id="SVGID_33_" gradientUnits="userSpaceOnUse" x1="27.4326" y1="75.4873" x2="48.2327" y2="18.3396" gradientTransform="matrix(1 0 0 1 8 -11)">
			<stop  offset="0.3977" style="stop-color:#FF6A00"/>
			<stop  offset="0.9058" style="stop-color:#FF9500"/>
		</linearGradient>
		<polygon fill="url(#SVGID_33_)" points="47.217,14.408 47.217,15.459 55.613,23.855 56.665,23.855 		"/>
		
			<linearGradient id="SVGID_34_" gradientUnits="userSpaceOnUse" x1="39.8999" y1="80.0234" x2="60.6987" y2="22.8793" gradientTransform="matrix(1 0 0 1 8 -11)">
			<stop  offset="0.3977" style="stop-color:#FF6A00"/>
			<stop  offset="0.9058" style="stop-color:#FF9500"/>
		</linearGradient>
		<path fill="url(#SVGID_34_)" d="M55.178,33.52h-1.051l9.817,9.817c0.056-0.307,0.094-0.616,0.122-0.931L55.178,33.52z"/>
		
			<linearGradient id="SVGID_35_" gradientUnits="userSpaceOnUse" x1="41.0654" y1="80.4531" x2="61.8668" y2="23.3017" gradientTransform="matrix(1 0 0 1 8 -11)">
			<stop  offset="0.3977" style="stop-color:#FF6A00"/>
			<stop  offset="0.9058" style="stop-color:#FF9500"/>
		</linearGradient>
		<path fill="url(#SVGID_35_)" d="M60.238,34.119c-0.473-0.233-0.991-0.402-1.551-0.499l5.014,5.013
			c-0.183-0.627-0.428-1.227-0.731-1.779L60.238,34.119z"/>
		
			<linearGradient id="SVGID_36_" gradientUnits="userSpaceOnUse" x1="27.9946" y1="75.6992" x2="48.7967" y2="18.5462" gradientTransform="matrix(1 0 0 1 8 -11)">
			<stop  offset="0.3977" style="stop-color:#FF6A00"/>
			<stop  offset="0.9058" style="stop-color:#FF9500"/>
		</linearGradient>
		<path fill="url(#SVGID_36_)" d="M47.217,12.178v1.051l10.615,10.614c0.333-0.009,0.651-0.043,0.957-0.095L47.217,12.178z"/>
		
			<linearGradient id="SVGID_37_" gradientUnits="userSpaceOnUse" x1="31.4868" y1="76.96" x2="52.2858" y2="19.8152" gradientTransform="matrix(1 0 0 1 8 -11)">
			<stop  offset="0.3977" style="stop-color:#FF6A00"/>
			<stop  offset="0.9058" style="stop-color:#FF9500"/>
		</linearGradient>
		<path fill="url(#SVGID_37_)" d="M54.435,8.243h-1.051L63.81,18.67c0.071-0.287,0.13-0.579,0.175-0.875L54.435,8.243z"/>
		
			<linearGradient id="SVGID_38_" gradientUnits="userSpaceOnUse" x1="30.5259" y1="76.6133" x2="51.3256" y2="19.4662" gradientTransform="matrix(1 0 0 1 8 -11)">
			<stop  offset="0.3977" style="stop-color:#FF6A00"/>
			<stop  offset="0.9058" style="stop-color:#FF9500"/>
		</linearGradient>
		<path fill="url(#SVGID_38_)" d="M52.204,8.243h-1.051l12.069,12.07c0.116-0.239,0.223-0.483,0.315-0.736L52.204,8.243z"/>
		
			<linearGradient id="SVGID_39_" gradientUnits="userSpaceOnUse" x1="32.8218" y1="77.4365" x2="53.6181" y2="20.2993" gradientTransform="matrix(1 0 0 1 8 -11)">
			<stop  offset="0.3977" style="stop-color:#FF6A00"/>
			<stop  offset="0.9058" style="stop-color:#FF9500"/>
		</linearGradient>
		<path fill="url(#SVGID_39_)" d="M59.063,8.412c-0.381-0.092-0.785-0.14-1.207-0.154l6.073,6.071
			c-0.09-0.488-0.215-0.964-0.375-1.426L59.063,8.412z"/>
		
			<linearGradient id="SVGID_40_" gradientUnits="userSpaceOnUse" x1="28.4507" y1="75.8594" x2="49.2508" y2="18.7115" gradientTransform="matrix(1 0 0 1 8 -11)">
			<stop  offset="0.3977" style="stop-color:#FF6A00"/>
			<stop  offset="0.9058" style="stop-color:#FF9500"/>
		</linearGradient>
		<path fill="url(#SVGID_40_)" d="M47.743,8.243h-0.526v0.526L61.209,22.76c0.204-0.145,0.395-0.305,0.577-0.475L47.743,8.243z"/>
		
			<linearGradient id="SVGID_41_" gradientUnits="userSpaceOnUse" x1="28.2969" y1="75.7988" x2="49.096" y2="18.6535" gradientTransform="matrix(1 0 0 1 8 -11)">
			<stop  offset="0.3977" style="stop-color:#FF6A00"/>
			<stop  offset="0.9058" style="stop-color:#FF9500"/>
		</linearGradient>
		<path fill="url(#SVGID_41_)" d="M47.217,9.948v1.051l12.517,12.517c0.259-0.089,0.508-0.189,0.744-0.308L47.217,9.948z"/>
		
			<linearGradient id="SVGID_42_" gradientUnits="userSpaceOnUse" x1="29.4531" y1="76.2266" x2="50.2538" y2="19.0771" gradientTransform="matrix(1 0 0 1 8 -11)">
			<stop  offset="0.3977" style="stop-color:#FF6A00"/>
			<stop  offset="0.9058" style="stop-color:#FF9500"/>
		</linearGradient>
		<path fill="url(#SVGID_42_)" d="M49.974,8.243h-1.051l13.431,13.431c0.159-0.192,0.307-0.396,0.442-0.608L49.974,8.243z"/>
		
			<linearGradient id="SVGID_43_" gradientUnits="userSpaceOnUse" x1="36.2466" y1="78.6982" x2="57.0473" y2="21.5488" gradientTransform="matrix(1 0 0 1 8 -11)">
			<stop  offset="0.3977" style="stop-color:#FF6A00"/>
			<stop  offset="0.9058" style="stop-color:#FF9500"/>
		</linearGradient>
		<path fill="url(#SVGID_43_)" d="M47.217,36.711v1.051l11.309,11.31c0.305-0.039,0.594-0.103,0.873-0.179L47.217,36.711z"/>
		
			<linearGradient id="SVGID_44_" gradientUnits="userSpaceOnUse" x1="33.8906" y1="77.8252" x2="54.6767" y2="20.716" gradientTransform="matrix(1 0 0 1 8 -11)">
			<stop  offset="0.3977" style="stop-color:#FF6A00"/>
			<stop  offset="0.9058" style="stop-color:#FF9500"/>
		</linearGradient>
		<polygon fill="url(#SVGID_44_)" points="47.217,45.634 47.217,46.685 49.666,49.133 50.717,49.133 		"/>
		
			<linearGradient id="SVGID_45_" gradientUnits="userSpaceOnUse" x1="11.8252" y1="69.8164" x2="32.631" y2="12.6529" gradientTransform="matrix(1 0 0 1 8 -11)">
			<stop  offset="0.3977" style="stop-color:#FF6A00"/>
			<stop  offset="0.9058" style="stop-color:#FF9500"/>
		</linearGradient>
		<path fill="url(#SVGID_45_)" d="M35.663,37.361c0-0.349,0-0.7-0.001-1.054l-11.49-11.491c0,0.35,0,0.7,0,1.051L35.663,37.361z"/>
		
			<linearGradient id="SVGID_46_" gradientUnits="userSpaceOnUse" x1="33.2651" y1="77.5977" x2="54.0492" y2="20.4939" gradientTransform="matrix(1 0 0 1 8 -11)">
			<stop  offset="0.3977" style="stop-color:#FF6A00"/>
			<stop  offset="0.9058" style="stop-color:#FF9500"/>
		</linearGradient>
		<polygon fill="url(#SVGID_46_)" points="47.217,47.864 47.217,48.915 47.435,49.133 48.487,49.133 		"/>
		
			<linearGradient id="SVGID_47_" gradientUnits="userSpaceOnUse" x1="11.106" y1="69.5576" x2="31.9127" y2="12.3916" gradientTransform="matrix(1 0 0 1 8 -11)">
			<stop  offset="0.3977" style="stop-color:#FF6A00"/>
			<stop  offset="0.9058" style="stop-color:#FF9500"/>
		</linearGradient>
		<path fill="url(#SVGID_47_)" d="M35.66,35.128c0-0.351,0-0.7,0-1.053L24.172,22.586c0,0.348,0,0.698,0,1.051L35.66,35.128z"/>
		
			<linearGradient id="SVGID_48_" gradientUnits="userSpaceOnUse" x1="10.3896" y1="69.2871" x2="31.1915" y2="12.1346" gradientTransform="matrix(1 0 0 1 8 -11)">
			<stop  offset="0.3977" style="stop-color:#FF6A00"/>
			<stop  offset="0.9058" style="stop-color:#FF9500"/>
		</linearGradient>
		<path fill="url(#SVGID_48_)" d="M35.657,32.894c0-0.352,0-0.702-0.001-1.054L24.172,20.355c0,0.348,0,0.697,0,1.052L35.657,32.894
			z"/>
		
			<linearGradient id="SVGID_49_" gradientUnits="userSpaceOnUse" x1="9.6724" y1="69.0225" x2="30.4726" y2="11.8744" gradientTransform="matrix(1 0 0 1 8 -11)">
			<stop  offset="0.3977" style="stop-color:#FF6A00"/>
			<stop  offset="0.9058" style="stop-color:#FF9500"/>
		</linearGradient>
		<path fill="url(#SVGID_49_)" d="M35.654,30.66c0-0.351,0-0.701-0.002-1.054l-11.48-11.48c0,0.345,0,0.697,0,1.051L35.654,30.66z"
			/>
		
			<linearGradient id="SVGID_50_" gradientUnits="userSpaceOnUse" x1="35.1406" y1="78.29" x2="55.936" y2="21.1551" gradientTransform="matrix(1 0 0 1 8 -11)">
			<stop  offset="0.3977" style="stop-color:#FF6A00"/>
			<stop  offset="0.9058" style="stop-color:#FF9500"/>
		</linearGradient>
		<polygon fill="url(#SVGID_50_)" points="47.217,41.172 47.217,42.224 54.126,49.133 55.178,49.133 		"/>
		
			<linearGradient id="SVGID_51_" gradientUnits="userSpaceOnUse" x1="8.9541" y1="68.7637" x2="29.7552" y2="11.613" gradientTransform="matrix(1 0 0 1 8 -11)">
			<stop  offset="0.3977" style="stop-color:#FF6A00"/>
			<stop  offset="0.9058" style="stop-color:#FF9500"/>
		</linearGradient>
		<path fill="url(#SVGID_51_)" d="M35.651,28.426c0-0.352,0-0.701-0.002-1.053L24.172,15.895c0,0.343,0,0.696,0,1.052L35.651,28.426
			z"/>
		
			<linearGradient id="SVGID_52_" gradientUnits="userSpaceOnUse" x1="36.4634" y1="78.7783" x2="57.2652" y2="21.6257" gradientTransform="matrix(1 0 0 1 8 -11)">
			<stop  offset="0.3977" style="stop-color:#FF6A00"/>
			<stop  offset="0.9058" style="stop-color:#FF9500"/>
		</linearGradient>
		<path fill="url(#SVGID_52_)" d="M47.217,34.48v1.051l13.047,13.048c0.238-0.109,0.467-0.231,0.684-0.367L47.217,34.48z"/>
		
			<linearGradient id="SVGID_53_" gradientUnits="userSpaceOnUse" x1="35.7637" y1="78.5254" x2="56.5664" y2="21.3702" gradientTransform="matrix(1 0 0 1 8 -11)">
			<stop  offset="0.3977" style="stop-color:#FF6A00"/>
			<stop  offset="0.9058" style="stop-color:#FF9500"/>
		</linearGradient>
		<polygon fill="url(#SVGID_53_)" points="47.217,38.941 47.217,39.993 56.356,49.133 57.408,49.133 		"/>
		
			<linearGradient id="SVGID_54_" gradientUnits="userSpaceOnUse" x1="37.9526" y1="79.3164" x2="58.7508" y2="22.174" gradientTransform="matrix(1 0 0 1 8 -11)">
			<stop  offset="0.3977" style="stop-color:#FF6A00"/>
			<stop  offset="0.9058" style="stop-color:#FF9500"/>
		</linearGradient>
		<path fill="url(#SVGID_54_)" d="M50.717,33.52h-1.051l13.008,13.008c0.145-0.209,0.276-0.427,0.398-0.653L50.717,33.52z"/>
		
			<linearGradient id="SVGID_55_" gradientUnits="userSpaceOnUse" x1="34.5112" y1="78.0732" x2="55.3192" y2="20.9038" gradientTransform="matrix(1 0 0 1 8 -11)">
			<stop  offset="0.3977" style="stop-color:#FF6A00"/>
			<stop  offset="0.9058" style="stop-color:#FF9500"/>
		</linearGradient>
		<polygon fill="url(#SVGID_55_)" points="47.217,43.402 47.217,44.454 51.896,49.133 52.948,49.133 		"/>
	</g>
</g>
</svg>
