<?xml version="1.0" encoding="utf-8"?>
<!-- Generator: Adobe Illustrator 16.0.3, SVG Export Plug-In . SVG Version: 6.00 Build 0)  -->
<!DOCTYPE svg PUBLIC "-//W3C//DTD SVG 1.1//EN" "http://www.w3.org/Graphics/SVG/1.1/DTD/svg11.dtd">
<svg version="1.1" id="Layer_1" xmlns="http://www.w3.org/2000/svg" xmlns:xlink="http://www.w3.org/1999/xlink" x="0px" y="0px"
	 width="78px" height="74px" viewBox="-22.625 -23.792 78 74" enable-background="new -22.625 -23.792 78 74" xml:space="preserve">
<path opacity="0.5" fill="#FFFFFF" enable-background="new    " d="M-2.083-11.622h35.919c3.882,0,7.039,3.154,7.039,7.042v35.92
	c0,3.888-3.157,7.038-7.039,7.038H-2.083c-3.889,0-7.042-3.152-7.042-7.038v-35.92C-9.126-8.468-5.972-11.622-2.083-11.622z"/>
<path opacity="0.5" enable-background="new    " d="M0.074-8.625h31.604c3.422,0,6.198,2.775,6.198,6.199v31.605
	c0,3.423-2.776,6.198-6.198,6.198H0.074c-3.423,0-6.199-2.775-6.199-6.198V-2.425C-6.125-5.85-3.35-8.625,0.074-8.625z"/>
<polygon opacity="0.7" fill="#FFFFFF" enable-background="new    " points="28.055,13.723 6.85,26.746 6.85,0.704 "/>
</svg>
