<?xml version="1.0" encoding="utf-8"?>
<!-- Generator: Adobe Illustrator 16.0.3, SVG Export Plug-In . SVG Version: 6.00 Build 0)  -->
<!DOCTYPE svg PUBLIC "-//W3C//DTD SVG 1.1//EN" "http://www.w3.org/Graphics/SVG/1.1/DTD/svg11.dtd">
<svg version="1.1" id="Layer_1" xmlns="http://www.w3.org/2000/svg" xmlns:xlink="http://www.w3.org/1999/xlink" x="0px" y="0px"
	 width="27.125px" height="27.25px" viewBox="0 0 27.125 27.25" enable-background="new 0 0 27.125 27.25" xml:space="preserve">
<path opacity="0.5" fill-rule="evenodd" clip-rule="evenodd" fill="#FFFFFF" d="M5.089,1.75h17.24c1.865,0,3.38,1.514,3.38,3.38
	v17.24c0,1.866-1.515,3.38-3.38,3.38H5.089c-1.867,0-3.38-1.514-3.38-3.38V5.13C1.708,3.264,3.222,1.75,5.089,1.75z"/>
<path opacity="0.5" fill-rule="evenodd" clip-rule="evenodd" d="M6.124,3.189h15.171c1.643,0,2.975,1.332,2.975,2.975v15.172
	c0,1.642-1.332,2.974-2.975,2.974H6.124c-1.643,0-2.975-1.332-2.975-2.974V6.164C3.149,4.521,4.481,3.189,6.124,3.189z"/>
<polygon opacity="0.7" fill="#FFFFFF" points="19.272,14.059 11.5,19.324 11.5,8.797 "/>
</svg>
