<?xml version="1.0" encoding="utf-8"?>
<!-- Generator: Adobe Illustrator 16.0.3, SVG Export Plug-In . SVG Version: 6.00 Build 0)  -->
<!DOCTYPE svg PUBLIC "-//W3C//DTD SVG 1.1//EN" "http://www.w3.org/Graphics/SVG/1.1/DTD/svg11.dtd">
<svg version="1.1" id="Layer_1" xmlns="http://www.w3.org/2000/svg" xmlns:xlink="http://www.w3.org/1999/xlink" x="0px" y="0px"
	 width="28.25px" height="27.875px" viewBox="-0.375 -2.125 28.25 27.875" enable-background="new -0.375 -2.125 28.25 27.875"
	 xml:space="preserve">
<linearGradient id="SVGID_1_" gradientUnits="userSpaceOnUse" x1="307.9473" y1="-364.2314" x2="307.9473" y2="-359.0752" gradientTransform="matrix(1 0 0 -1 -294 -359)">
	<stop  offset="0" style="stop-color:#969696"/>
	<stop  offset="1" style="stop-color:#232323"/>
</linearGradient>
<path fill="url(#SVGID_1_)" d="M3.733,0.075h20.429c0.986,0,1.785,0.867,1.785,1.935v1.287c0,1.068-0.799,1.935-1.785,1.935H3.733
	c-0.986,0-1.786-0.866-1.786-1.935V2.012C1.947,0.942,2.747,0.075,3.733,0.075z"/>
<linearGradient id="SVGID_2_" gradientUnits="userSpaceOnUse" x1="307.9473" y1="-373.5757" x2="307.9473" y2="-368.4194" gradientTransform="matrix(1 0 0 -1 -294 -359)">
	<stop  offset="0" style="stop-color:#969696"/>
	<stop  offset="1" style="stop-color:#232323"/>
</linearGradient>
<path fill="url(#SVGID_2_)" d="M3.733,9.419h20.429c0.986,0,1.785,0.867,1.785,1.935v1.286c0,1.067-0.799,1.936-1.785,1.936H3.733
	c-0.986,0-1.786-0.868-1.786-1.936v-1.286C1.947,10.285,2.747,9.419,3.733,9.419z"/>
<linearGradient id="SVGID_3_" gradientUnits="userSpaceOnUse" x1="307.9473" y1="-383.0747" x2="307.9473" y2="-377.9185" gradientTransform="matrix(1 0 0 -1 -294 -359)">
	<stop  offset="0" style="stop-color:#969696"/>
	<stop  offset="1" style="stop-color:#232323"/>
</linearGradient>
<path fill="url(#SVGID_3_)" d="M3.733,18.919h20.429c0.986,0,1.785,0.867,1.785,1.936v1.288c0,1.065-0.799,1.933-1.785,1.933H3.733
	c-0.986,0-1.786-0.867-1.786-1.933v-1.288C1.947,19.786,2.747,18.919,3.733,18.919z"/>
</svg>
