<?xml version="1.0" encoding="utf-8"?>
<!-- Generator: Adobe Illustrator 16.0.3, SVG Export Plug-In . SVG Version: 6.00 Build 0)  -->
<!DOCTYPE svg PUBLIC "-//W3C//DTD SVG 1.1//EN" "http://www.w3.org/Graphics/SVG/1.1/DTD/svg11.dtd">
<svg version="1.1" id="Layer_1" xmlns="http://www.w3.org/2000/svg" xmlns:xlink="http://www.w3.org/1999/xlink" x="0px" y="0px"
	 width="24px" height="24px" viewBox="0 0 24 24" enable-background="new 0 0 24 24" xml:space="preserve">
<linearGradient id="SVGID_1_" gradientUnits="userSpaceOnUse" x1="11.9155" y1="6.0615" x2="11.9155" y2="2.1895">
	<stop  offset="0" style="stop-color:#4D4D4D"/>
	<stop  offset="1" style="stop-color:#000000"/>
</linearGradient>
<path fill-rule="evenodd" clip-rule="evenodd" fill="url(#SVGID_1_)" d="M3.602,2.189h16.626c0.803,0,1.453,0.651,1.453,1.453v0.966
	c0,0.802-0.65,1.453-1.453,1.453H3.602c-0.802,0-1.453-0.651-1.453-1.453V3.643C2.149,2.84,2.8,2.189,3.602,2.189z"/>
<linearGradient id="SVGID_2_" gradientUnits="userSpaceOnUse" x1="11.9155" y1="13.0781" x2="11.9155" y2="9.2061">
	<stop  offset="0" style="stop-color:#4D4D4D"/>
	<stop  offset="1" style="stop-color:#000000"/>
</linearGradient>
<path fill-rule="evenodd" clip-rule="evenodd" fill="url(#SVGID_2_)" d="M3.602,9.206h16.626c0.803,0,1.453,0.651,1.453,1.453v0.966
	c0,0.802-0.65,1.453-1.453,1.453H3.602c-0.802,0-1.453-0.651-1.453-1.453v-0.966C2.149,9.856,2.8,9.206,3.602,9.206z"/>
<linearGradient id="SVGID_3_" gradientUnits="userSpaceOnUse" x1="11.9155" y1="20.2119" x2="11.9155" y2="16.3398">
	<stop  offset="0" style="stop-color:#4D4D4D"/>
	<stop  offset="1" style="stop-color:#000000"/>
</linearGradient>
<path fill-rule="evenodd" clip-rule="evenodd" fill="url(#SVGID_3_)" d="M3.602,16.34h16.626c0.803,0,1.453,0.65,1.453,1.453v0.967
	c0,0.801-0.65,1.452-1.453,1.452H3.602c-0.802,0-1.453-0.651-1.453-1.452v-0.967C2.149,16.99,2.8,16.34,3.602,16.34z"/>
</svg>
