<?xml version="1.0" encoding="utf-8"?>
<!-- Generator: Adobe Illustrator 16.0.3, SVG Export Plug-In . SVG Version: 6.00 Build 0)  -->
<!DOCTYPE svg PUBLIC "-//W3C//DTD SVG 1.1//EN" "http://www.w3.org/Graphics/SVG/1.1/DTD/svg11.dtd">
<svg version="1.1" id="Layer_1" xmlns="http://www.w3.org/2000/svg" xmlns:xlink="http://www.w3.org/1999/xlink" x="0px" y="0px"
	 width="50.583px" height="41.604px" viewBox="-11.375 0 50.583 41.604" enable-background="new -11.375 0 50.583 41.604"
	 xml:space="preserve">
<path fill="#7A7A7A" stroke="#282828" stroke-miterlimit="10" d="M-2.356,3.243h33.065c1.305,0,2.361,1.146,2.361,2.56v1.702
	c0,1.414-1.057,2.56-2.361,2.56H-2.356c-1.305,0-2.363-1.146-2.363-2.56V5.805C-4.72,4.389-3.661,3.243-2.356,3.243z"/>
<path fill="#7A7A7A" stroke="#282828" stroke-miterlimit="10" d="M-2.356,17.124h33.065c1.305,0,2.361,1.146,2.361,2.56v1.701
	c0,1.411-1.057,2.562-2.361,2.562H-2.356c-1.305,0-2.363-1.149-2.363-2.562v-1.701C-4.72,18.27-3.661,17.124-2.356,17.124z"/>
<path fill="#7A7A7A" stroke="#282828" stroke-miterlimit="10" d="M-2.356,31.005h33.065c1.305,0,2.361,1.146,2.361,2.562v1.702
	c0,1.409-1.057,2.559-2.361,2.559H-2.356c-1.305,0-2.363-1.146-2.363-2.559v-1.702C-4.72,32.151-3.661,31.005-2.356,31.005z"/>
</svg>
