<?xml version="1.0" encoding="UTF-8" standalone="no"?>
<!-- Generator: Adobe Illustrator 16.0.0, SVG Export Plug-In . SVG Version: 6.00 Build 0)  -->
<!DOCTYPE svg  PUBLIC '-//W3C//DTD SVG 1.1//EN'  'http://www.w3.org/Graphics/SVG/1.1/DTD/svg11.dtd'>
<svg id="Layer_1" xmlns="http://www.w3.org/2000/svg" xml:space="preserve" height="41.604px" viewBox="0 0 50.583 41.604" width="50.583px" version="1.1" y="0px" x="0px" xmlns:xlink="http://www.w3.org/1999/xlink" enable-background="new 0 0 50.583 41.604">
<g stroke="#282828" stroke-miterlimit="10" fill="#7A7A7A">
	<path d="m8.76 3.51h33.065c1.305 0 2.36 1.146 2.36 2.56v1.702c0 1.414-1.057 2.56-2.36 2.56h-33.065c-1.306 0-2.363-1.146-2.363-2.56v-1.7c-0.001-1.417 1.058-2.562 2.363-2.562z"/>
	<path d="m8.76 17.39h33.065c1.305 0 2.36 1.146 2.36 2.56v1.702c0 1.41-1.057 2.562-2.36 2.562h-33.065c-1.306 0-2.363-1.15-2.363-2.562v-1.702c-0.001-1.414 1.058-2.56 2.363-2.56z"/>
	<path d="m8.76 31.271h33.065c1.305 0 2.36 1.146 2.36 2.562v1.701c0 1.41-1.057 2.561-2.36 2.561h-33.065c-1.306 0-2.363-1.146-2.363-2.561v-1.701c-0.001-1.416 1.058-2.562 2.363-2.562z"/>
</g>
</svg>
